<?xml version="1.0" encoding="utf-8"?>
<!-- Generator: Adobe Illustrator 18.1.1, SVG Export Plug-In . SVG Version: 6.00 Build 0)  -->
<svg version="1.1" id="图层_1" xmlns="http://www.w3.org/2000/svg" xmlns:xlink="http://www.w3.org/1999/xlink" x="0px" y="0px"
	 viewBox="0 0 141.7 141.7" enable-background="new 0 0 141.7 141.7" xml:space="preserve">
<g>
	<path fill="#EA0C7F" d="M76,93.8c0,4.5-0.7,8.6-2.1,12.3c-1.4,3.7-3.5,6.9-6.2,9.5c-2.7,2.6-6.1,4.7-10.2,6.1
		c-4.1,1.4-8.8,2.2-14.1,2.2c-4,0-7.8-0.5-11.4-1.4c-3.7-0.9-1.9-16.4-0.1-15.8c1.9,0.7,3.8,1.2,5.7,1.5c2,0.4,3.9,0.5,5.8,0.5
		c1.6,0,3.3-0.3,5-0.9c1.7-0.6,3.3-1.6,4.7-2.9c1.4-1.4,2.5-3.2,3.4-5.4c0.9-2.2,1.3-5,1.3-8.2V56.7H76V93.8z"/>
</g>
<g>
	<path fill="#EA0C7F" d="M112.7,109.2L96.2,77.9l-3.4-6.7v21.7v16.3H82.2V56.7h14.2l16.8,31.5l3,6.1V71.2V56.7h10.6v52.4H112.7z"/>
</g>
<path fill="#EA0C7F" d="M82.1,17.3l4.6,2.3c0,0,2.2,0.9,2.9,1.3c0.6,0.3,1.6,1.1,2.2,1.5c0.6,0.5,1.8,1.5,2.3,2.2
	c0.3,0.3,1.1,2.3,1.3,2.8c0.2,0.9,0.3,1.5,0.3,2.4c0,0.6-0.5,1.8-0.7,2.3c-0.3,0.8-1.7,2.1-2.3,2.7c-0.6,0.6-2,1.5-2.7,2
	c-1,0.7-4.2,2.8-4.2,2.8l-3.7,1.7l-5.5,2.3l-7.3,2.5c0,0-4.2,1.3-5.7,1.7c-0.9,0.3-2.8,0.7-3.8,1.1c-0.8,0.3-2.3,0.8-3.1,1.1
	c-0.8,0.4-2.2,1.5-2.9,2.1c-1,0.9-3.3,4-3.3,4s3.8-2.8,5.2-3.6c0.8-0.4,2.6-1,3.5-1.3c0.9-0.3,3.2-0.6,4.2-0.7
	c1.5-0.2,4.2-0.4,5.8-0.4c2.9,0,8.8-0.1,11.7-0.2c2-0.1,5.9-0.3,7.8-0.5c1.3-0.1,3.8-0.6,5-0.8c0.9-0.2,2.7-0.6,3.5-1
	c1.4-0.6,3.9-2.2,5-3.2c0.8-0.6,2.3-2,2.8-2.8c0.6-0.9,1.6-2.9,1.8-4c0.4-1.5,0.3-4.5,0-6c-0.4-1.9-2.6-5.2-3.9-6.7
	c-0.9-1.1-3-2.8-4.3-3.5c-1-0.5-4-1.8-4-1.8l-4.2-1.2L82.1,17.3z"/>
<path fill="#EA0C7F" d="M85.2,36.6L80.7,39c0,0-3.4,1.8-4.6,2.3c-1.3,0.5-4,1.3-5.2,1.7c-1.3,0.5-3.6,1.4-4.9,1.8
	c-1.6,0.5-4.7,1.7-6.3,2.2c-1.2,0.3-1.6,0.2-2.8,0.7c-0.5,0.2-3.5,1.5-3.9,1.8c-1,0.6-2.9,2-3.8,2.7c-0.9,0.7-2.7,2.1-3.5,3
	c-0.8,0.9-2,2.8-2.5,3.8c-0.4,0.9-1.2,2.7-1.3,3.7c-0.4,2.3-0.2,7.1,0,9.5c0.1,1.4,0.7,4.2,1.2,5.5c0.4,1.4,1.5,4,2,5.3
	c0.4,1.1,1,3.3,1.5,4.3c0.9,2.1,4.3,8,4.3,8s-5.8-5.7-7.5-7.8c-2-2.5-5.5-7.8-7.2-10.5c-0.9-1.4-2.4-4.3-3-5.8
	c-0.7-1.7-1.9-5.2-2.2-7c-0.3-1.8-0.4-5.6,0-7.4c0.3-1.2,1.4-3.5,2-4.6c0.6-1.1,0.4-0.9,1.1-2c0.6-0.8,1.5-2.6,2.2-3.3
	c0.9-0.9,5-4.5,6.2-5.2c0.8-0.4,2.6-1.3,3.5-1.5C55.5,37.9,85.2,36.6,85.2,36.6z"/>
<path fill="#EA0C7F" d="M45.2,21.3V25c0,0,0.1,4,0,5.3c-0.1,1.3-0.6,3.8-1,5c-0.3,0.7-1,2.1-1.5,2.7c-0.7,0.7-3.5,1.9-3.5,1.9
	l-5.7,2.6l2-3.3c0,0,1.4-2.6,1.7-3.5c0.2-0.9,0.2-2.8,0.3-3.7c0.1-0.9,0.3-2.6,0.7-3.4c0.3-0.9,1.4-2.5,2-3.2
	C41.2,24.1,45.2,21.3,45.2,21.3z"/>
<path fill="#EA0C7F" d="M32.2,36.6l-3,3.8l-2.7,3.7c0,0-2.2,3-2.8,4c-0.8,1.3-2.3,3.8-2.7,5.2c-0.2,0.9-0.6,2.8-0.6,3.7
	c0,0.8,0.5,2.1,0.6,2.8c0.1,0.7,0.5,2,0.8,2.7c0.9,2.1,3.5,5.8,4.8,7.7c1.8,2.6,7.7,9.8,7.7,9.8L44.6,92L27.2,79.3L22.6,75
	c0,0-3.5-3.7-4.5-5c-0.8-1-2.3-3-2.8-4.2c-0.6-1.3-1.3-4-1.5-5.3c-0.2-1.4-0.3-4.3,0-5.7c0.2-0.9,1.1-2.5,1.5-3.3
	c0.7-1.3,2.3-3.8,3.3-4.8C21.6,43.7,32.2,36.6,32.2,36.6z"/>
</svg>
